<svg width="1011" height="784" viewBox="0 0 1011 784" fill="none" xmlns="http://www.w3.org/2000/svg">
<path fill-rule="evenodd" clip-rule="evenodd" d="M694 247C723.271 247 747 223.271 747 194C747 164.729 723.271 141 694 141C664.729 141 641 164.729 641 194C641 223.271 664.729 247 694 247Z" fill="#F2F2F2"/>
<path fill-rule="evenodd" clip-rule="evenodd" d="M694 155C695.657 155 697 153.657 697 152C697 150.343 695.657 149 694 149C692.343 149 691 150.343 691 152C691 153.657 692.343 155 694 155Z" fill="black" fill-opacity="0.1"/>
<path fill-rule="evenodd" clip-rule="evenodd" d="M652 197C653.657 197 655 195.657 655 194C655 192.343 653.657 191 652 191C650.343 191 649 192.343 649 194C649 195.657 650.343 197 652 197Z" fill="black" fill-opacity="0.1"/>
<path fill-rule="evenodd" clip-rule="evenodd" d="M736 197C737.657 197 739 195.657 739 194C739 192.343 737.657 191 736 191C734.343 191 733 192.343 733 194C733 195.657 734.343 197 736 197Z" fill="black" fill-opacity="0.1"/>
<path fill-rule="evenodd" clip-rule="evenodd" d="M694 239C695.657 239 697 237.657 697 236C697 234.343 695.657 233 694 233C692.343 233 691 234.343 691 236C691 237.657 692.343 239 694 239Z" fill="black" fill-opacity="0.1"/>
<path fill-rule="evenodd" clip-rule="evenodd" d="M694 158L696 193H692L694 158Z" fill="#AFB9C5"/>
<path fill-rule="evenodd" clip-rule="evenodd" d="M711.699 211.698L693.314 196.142L696.142 193.314L711.699 211.698Z" fill="#AFB9C5"/>
<path fill-rule="evenodd" clip-rule="evenodd" d="M694 198C696.209 198 698 196.209 698 194C698 191.791 696.209 190 694 190C691.791 190 690 191.791 690 194C690 196.209 691.791 198 694 198Z" fill="#C5CFD6"/>
<g opacity="0.345889" clip-path="url(#clip0_2_3672)">
<path fill-rule="evenodd" clip-rule="evenodd" d="M760.306 484.966C749.796 395.227 185.9 222.021 81.2146 307.02C-23.4708 392.019 77.1712 551.54 296.553 592.389C515.935 633.239 770.815 574.705 760.306 484.966Z" fill="#F2F2F2"/>
<path fill-rule="evenodd" clip-rule="evenodd" d="M283.847 543.274C293.552 467.037 814.279 319.892 910.95 392.102C1007.62 464.312 983.152 616.198 780.565 650.901C577.978 685.604 274.142 619.511 283.847 543.274Z" fill="#DDE3E9"/>
</g>
<path d="M775.897 346.236L814.322 324.27C816.782 322.863 819.803 322.863 822.263 324.27L914.838 377.192C919.822 380.041 922.897 385.342 922.897 391.082V716" stroke="#CBCBCB" stroke-width="8"/>
<rect x="892.897" y="715" width="59" height="7" rx="3" fill="#AFB9C5"/>
<path d="M740.396 335.335C753.283 322.447 774.178 322.447 787.065 335.335V335.335C799.952 348.222 799.952 369.116 787.065 382.004L767.266 401.803L720.597 355.134L740.396 335.335Z" fill="#C5CFD6"/>
<path fill-rule="evenodd" clip-rule="evenodd" d="M740.125 382.527C753.012 395.414 765.517 403.804 768.056 401.265C770.594 398.727 762.205 386.222 749.317 373.335C736.43 360.447 723.925 352.058 721.387 354.596C718.848 357.135 727.238 369.64 740.125 382.527Z" fill="#F2F2F2"/>
<rect x="800" y="629" width="38" height="9" rx="2" fill="#AFB9C5"/>
<path fill-rule="evenodd" clip-rule="evenodd" d="M817.217 556H819H820H821.783C822.301 571.419 824.707 586.085 829 600H835.5C844.06 600 851 606.94 851 615.5C851 624.06 844.06 631 835.5 631H802.5C793.94 631 787 624.06 787 615.5C787 606.94 793.94 600 802.5 600H810C816.44 579.128 817.217 556 817.217 556Z" fill="#DDE3E9"/>
<path fill-rule="evenodd" clip-rule="evenodd" d="M783.622 486.679C783.622 486.679 800.811 485 818 485C835.189 485 852.378 486.679 852.378 486.679L857 566.133C857 566.133 837.5 568 818 568C798.5 568 779 566.133 779 566.133L783.622 486.679Z" fill="#C5CFD6"/>
<path fill-rule="evenodd" clip-rule="evenodd" d="M756 742V660V638H777H860H881V660V742H860V660H777V742H756Z" fill="#F2F2F2"/>
<path fill-rule="evenodd" clip-rule="evenodd" d="M266.381 423.208C275.214 444.197 290.229 458.781 298.182 480.605C302.898 493.547 304.864 507.62 304.983 522.032C305.048 529.86 304.911 537.694 304.875 545.522C304.839 553.156 304.632 560.741 303.984 568.327C303.332 575.952 302.603 583.487 302.282 591.159C302.031 597.137 301.917 604.091 299.891 609.544C298.279 613.881 294.183 614.516 293.097 609.256C292.493 606.333 292.569 603.068 292.636 600.063C292.721 596.208 292.945 592.359 293.06 588.504C293.519 573.036 292.923 557.566 293.235 542.092C293.539 526.973 295.482 511.871 293.332 496.853C291.556 484.452 287.046 473.802 281.862 463.593C276.874 453.771 271.445 444.187 268.075 433.014C267.107 429.806 266.359 426.481 266 423.03C266.157 422.957 266.284 423.016 266.381 423.208Z" fill="#C1DEE2"/>
<path fill-rule="evenodd" clip-rule="evenodd" d="M263.974 464.617C265.723 465.88 266.7 467.728 267.882 469.551C269.352 471.817 271.081 473.863 272.551 476.131C275.615 480.86 278.308 485.879 281.102 490.799C286.406 500.137 290.433 510.091 292.427 520.895C294.495 532.092 295.052 543.648 295.919 555.012C296.839 567.056 297.765 579.188 297.887 591.279C297.942 596.696 298.235 602.446 297.584 607.825C297.179 611.173 295.668 614.027 292.261 614C285.025 613.942 281.627 605.927 280.208 599.354C278.119 589.674 277.702 579.393 278.033 569.494C278.432 557.558 280.504 545.802 281.4 533.912C282.35 521.325 281.814 508.96 277.486 497.109C275.3 491.12 272.763 485.274 270.484 479.325C269.514 476.792 268.719 474.19 267.409 471.831C265.951 469.208 264.142 466.826 263 464C263.324 464.206 263.649 464.411 263.974 464.617Z" fill="#89C5CC"/>
<path fill-rule="evenodd" clip-rule="evenodd" d="M347.334 439.518C347.556 439.345 347.778 439.173 348 439C347.361 441.693 346.207 443.88 345.324 446.341C344.531 448.554 344.129 451.058 343.595 453.477C342.34 459.158 340.89 464.711 339.706 470.44C337.36 481.777 337.804 493.99 339.342 506.568C340.795 518.45 343.092 530.313 344.187 542.192C345.095 552.043 345.485 562.202 344.619 571.601C344.031 577.984 342.103 585.606 336.848 584.962C334.374 584.659 333.084 581.681 332.564 578.32C331.729 572.922 331.554 567.246 331.229 561.878C330.502 549.896 330.358 537.951 330.214 526.092C330.078 514.904 329.705 503.494 330.452 492.587C331.173 482.063 333.428 472.58 336.653 463.83C338.351 459.22 339.97 454.502 341.878 450.108C342.793 448.001 343.911 446.139 344.827 444.033C345.563 442.339 346.148 440.601 347.334 439.518Z" fill="#C1DEE2"/>
<path fill-rule="evenodd" clip-rule="evenodd" d="M266.209 499.302C267.166 497.695 269.272 502.993 269.593 503.66C269.457 503.328 269.321 502.997 269.184 502.667C271.083 505.825 272.821 509.113 273.901 512.734C274.97 516.319 275.888 519.977 276.891 523.587C278.774 530.361 281.202 536.943 282.907 543.778C284.569 550.438 284.988 556.986 284.585 563.875C284.167 571.035 283.911 578.306 284.399 585.462C284.632 588.88 285.743 592.064 286.504 595.354C287.266 598.648 287.866 601.986 288.767 605.239C288.974 604.815 289 606.232 289 606.339C288.994 607.152 288.881 607.833 288.619 608.604C287.948 610.586 286.691 612.269 284.778 612.816C281.322 613.803 278.112 610.659 276.998 607.339C275.399 602.575 274.517 597.311 273.755 592.304C273.057 587.713 272.891 583.094 273.099 578.44C273.508 569.261 275.169 560.202 275.618 551.026C276.107 541.036 274.128 531.649 272.471 521.925C271.673 517.239 270.91 512.598 269.356 508.134C268.727 506.326 267.907 504.731 267.048 503.061C266.558 502.112 265.569 500.418 266.209 499.302Z" fill="#C1DEE2"/>
<path fill-rule="evenodd" clip-rule="evenodd" d="M294.252 483.697C293.856 495.142 293.172 506.5 291.646 517.824C290.089 529.38 288.3 540.897 286.802 552.463C285.343 563.722 283.815 575.168 284.018 586.585C284.168 594.993 282.774 609.219 292.113 613.369C301.572 617.572 303.601 599.623 304.222 593.699C305.412 582.333 305.027 570.847 304.449 559.419C303.856 547.689 302.866 536.02 301.64 524.334C300.277 511.353 299.208 498.314 298.349 485.296C297.925 478.857 297.82 472.429 297.937 465.988C298.048 459.911 297.817 453.77 295.656 448C295.543 448.082 295.431 448.164 295.318 448.246" fill="#69A1AC"/>
<path fill-rule="evenodd" clip-rule="evenodd" d="M343.083 519.955C341.382 522.433 339.667 524.887 338.061 527.512C335.186 532.209 332.587 537.432 331.805 544.147C330.169 558.2 331.481 573.379 331.798 587.863C331.863 590.822 331.489 593.693 332.655 596.51C333.713 599.064 335.691 601.01 337.576 601C341.611 600.977 340.995 591.095 341.002 586.746C341.014 579.123 340.159 571.422 340.233 563.806C340.306 556.26 340.765 548.694 341.859 541.528C342.967 534.275 344.589 527.309 346.729 520.81C347.026 519.908 349.158 512.937 347.144 514.139" fill="#89C5CC"/>
<path fill-rule="evenodd" clip-rule="evenodd" d="M325.262 445C322.609 445 322.625 458.226 322.546 459.925C322.257 466.055 322.325 472.188 322.143 478.319C321.744 491.701 321.254 505.2 319.243 518.426C318.161 525.547 316.907 532.636 315.557 539.702C314.204 546.789 312.387 553.867 311.497 561.044C310.642 567.943 311.125 574.977 311.242 581.91C311.359 588.885 311.57 595.874 312.484 602.788C312.709 604.494 312.974 606.195 313.257 607.891C313.492 609.305 313.355 611.058 313.754 612.401C314.393 614.552 317.133 615.256 318.978 614.92C323.97 614.009 327.159 607.74 328.865 603.16C331.043 597.311 332.199 590.967 333.339 584.804C334.631 577.821 335.388 570.732 335.743 563.623C336.466 549.175 335.539 534.712 334.504 520.31C333.928 512.301 333.263 504.327 332.246 496.367C331.232 488.441 329.932 480.55 329.086 472.601C328.471 466.825 327.865 461.04 327.467 455.241C327.371 453.859 327.291 445 325.262 445" fill="#69A1AC"/>
<path fill-rule="evenodd" clip-rule="evenodd" d="M321.941 541.139C321.508 527.253 315.927 466.259 314.657 449.467C314.339 445.264 311.282 427.765 310.885 423C309.81 424.347 309.901 445.309 309.913 450.126C309.926 454.891 309.335 459.576 309.031 464.315C308.721 469.151 301.572 531.601 300.645 536.247C298.799 545.491 297.564 554.976 296.611 564.428C295.683 573.639 294.24 583.358 295.482 592.618C295.767 594.75 296.219 596.848 296.955 598.806C297.749 600.922 298.294 602.879 298.932 605.093C299.958 608.659 301.815 611.789 304.668 613.262C310.517 616.281 313.658 609.447 315.251 603.497C317.793 593.995 319.426 584.338 320.191 574.359C321.037 563.318 322.287 552.255 321.941 541.139" fill="#89C5CC"/>
<rect x="260" y="582" width="91" height="91" rx="2" fill="white"/>
<rect x="250" y="592" width="10" height="113" rx="2" fill="#C5CFD6"/>
<rect x="300" y="592" width="10" height="113" rx="2" fill="#C5CFD6"/>
<rect x="351" y="592" width="10" height="113" rx="2" fill="#C5CFD6"/>
<path fill-rule="evenodd" clip-rule="evenodd" d="M527.181 396.584C534.455 400.971 541.602 403.091 544.957 402.226C553.37 400.056 554.144 369.257 547.634 357.115C541.125 344.974 507.66 339.681 505.974 363.738C505.388 372.088 508.892 379.539 514.068 385.619L504.787 428.909H531.747L527.181 396.584Z" fill="#B28B67"/>
<path fill-rule="evenodd" clip-rule="evenodd" d="M536.985 343.891C533.301 342.767 527.953 342.386 525.704 342.644C526.983 339.576 527.491 336.157 527.077 332.829C526.675 329.595 525.231 326.841 523.895 323.955C523.28 322.625 522.582 321.303 521.542 320.285C520.482 319.249 519.141 318.565 517.734 318.238C516.295 317.904 514.79 317.932 513.348 318.235C512.71 318.369 512.138 318.661 511.513 318.823C510.872 318.989 510.561 318.588 510.097 318.185C508.976 317.214 507.334 316.734 505.916 316.562C504.326 316.37 502.676 316.61 501.16 317.133C499.683 317.642 498.265 318.469 497.198 319.674C496.723 320.21 496.291 320.821 496.011 321.495C495.896 321.771 495.877 321.935 495.601 322.036C495.346 322.13 495.048 322.133 494.785 322.222C492.239 323.085 490.063 325.053 488.878 327.58C488.187 329.054 487.859 331.649 487.949 334.558C488.039 337.468 490.664 345.058 493.119 347.827C495.31 350.298 498.531 351.929 501.64 352.643C499.577 355.003 498.203 357.952 497.187 360.952C496.084 364.21 495.401 367.595 495.149 371.045C494.91 374.322 494.888 377.788 495.655 380.995C496.374 383.994 497.909 386.455 500.474 388.016C501.648 388.731 502.912 389.268 504.183 389.759C505.435 390.243 506.692 390.713 508.004 390.985C510.487 391.498 513.349 391.41 515.261 389.432C515.951 388.719 516.709 387.823 517.212 386.952C517.393 386.639 517.502 386.434 517.282 386.127C517.019 385.761 516.593 385.48 516.255 385.193C514.327 383.557 513.133 381.373 512.832 378.778C512.527 376.145 513.234 372.747 515.792 371.598C518.95 370.179 522.427 371.807 525.234 373.325C526.427 369.112 528.876 365.319 532.716 363.386C536.964 361.248 541.839 360.998 546.205 359.164C547.343 358.686 548.501 358.143 549.339 357.169C549.689 356.762 550.1 356.234 550.239 355.696C550.423 354.989 549.967 354.396 549.615 353.844C547.748 350.921 540.669 345.015 536.985 343.891Z" fill="#191847"/>
<path fill-rule="evenodd" clip-rule="evenodd" d="M502.54 718.932C550.311 718.932 589.037 681.941 589.037 636.309C589.037 590.678 550.311 553.686 502.54 553.686C454.769 553.686 416.043 590.678 416.043 636.309C416.043 681.941 454.769 718.932 502.54 718.932Z" fill="#C5CFD6"/>
<path fill-rule="evenodd" clip-rule="evenodd" d="M637.015 631.903C641.193 646.548 651.602 674.306 665.995 706.184L679.672 702.191C667.707 628.837 657.749 580.273 652.045 565.492C648.276 555.726 619.764 556.87 623.044 576.52C624.419 584.761 629.861 606.826 637.015 631.903ZM580.799 579.947C558.495 584.571 512.25 600.918 499.044 606.142C490.745 609.425 496.095 620.558 503.175 619.584C504.375 619.419 508.617 618.944 514.946 618.236C535.276 615.96 577.142 611.272 608.896 606.699C625.615 604.291 616.621 572.951 599.261 576.268C593.421 577.384 587.209 578.618 580.799 579.947Z" fill="#B28B67"/>
<path fill-rule="evenodd" clip-rule="evenodd" d="M652.919 557.214C650.639 549.767 546.982 523.335 546.982 523.335H538.487V531.256L609.916 567.644C609.821 568.818 609.88 570.059 610.11 571.368C609.594 598.343 621.131 618.495 632.554 638.447C640.023 651.494 647.444 664.456 651.413 679.185L677.656 675.267C676.891 673.31 675.683 664.489 674.03 652.428C669.863 622.016 662.873 571.007 653.067 557.512C653.033 557.465 652.998 557.418 652.962 557.371C652.95 557.319 652.935 557.266 652.919 557.214Z" fill="#1F28CF"/>
<path fill-rule="evenodd" clip-rule="evenodd" d="M544.421 589.254C537.886 587.945 531.867 586.776 526.717 585.872C493.451 580.033 483.751 562.214 489.486 523.335H550.778C560.79 526.213 612.822 548.049 639.819 559.662C657.686 567.349 652.054 595.059 641.935 602.27C641.88 602.713 641.698 603.013 641.374 603.148C603.011 619.059 570.297 617.872 549.29 617.109C540.491 616.79 533.746 616.545 529.5 617.662L522.846 596.66L544.421 589.254Z" fill="#2B44FF"/>
<path fill-rule="evenodd" clip-rule="evenodd" d="M506.043 604.783C506.003 603.612 505.017 602.678 503.853 602.797C501.47 603.041 497.744 603.543 495.965 604.411C493.234 605.744 488.438 609.212 488.438 609.212C489.983 612.382 516.212 666.198 516.212 666.198C516.212 666.198 524.633 664.837 522.886 659.766C521.138 654.695 520.067 651.299 520.067 651.299L518.953 618.926C518.934 618.363 518.454 617.927 517.891 617.962L512.808 618.282C512.808 618.282 508.582 614.86 507.232 612.09C506.376 610.334 506.118 606.992 506.043 604.783Z" fill="#E4E4E4"/>
<path fill-rule="evenodd" clip-rule="evenodd" d="M662.314 698.909C661.245 698.431 659.971 698.908 659.568 700.008C658.743 702.258 657.56 705.829 657.56 707.81C657.56 710.85 658.572 716.684 658.572 716.684C662.097 716.684 721.93 716.684 721.93 716.684C721.93 716.684 724.4 708.513 719.079 707.862C713.758 707.211 710.239 706.686 710.239 706.686L680.675 693.497C680.16 693.267 679.558 693.508 679.343 694.029L677.402 698.741C677.402 698.741 672.476 701.041 669.396 701.041C667.444 701.041 664.332 699.81 662.314 698.909Z" fill="#E4E4E4"/>
<path fill-rule="evenodd" clip-rule="evenodd" d="M633.61 534.166L597.777 507.835L589.856 527.429L625.34 542.154C635.375 553.95 640.987 558.868 642.175 556.907C643.176 555.253 642.393 553.705 641.672 552.279C641.11 551.169 640.586 550.132 640.972 549.177C641.853 546.997 648.595 547.227 654.982 547.718C661.37 548.21 659.509 545.365 657.968 543.961C651.448 540.055 643.328 536.79 633.61 534.166ZM445.697 580.562C448.989 573.879 460.199 508.744 460.199 508.744L483.674 508.836C483.674 508.836 461.932 579.072 460.199 583.369C457.948 588.952 461.772 597.063 464.365 602.563C464.766 603.414 465.137 604.202 465.453 604.909C461.855 606.52 460.127 604.573 458.305 602.52C456.247 600.201 454.069 597.748 448.943 600.134C446.963 601.056 445.089 602.146 443.258 603.211C436.934 606.89 431.124 610.27 423.22 605.389C421.967 604.616 420.594 601.703 423.912 599.426C432.177 593.755 444.088 583.829 445.697 580.562Z" fill="#B28B67"/>
<path fill-rule="evenodd" clip-rule="evenodd" d="M526.911 410.172L536.625 408.505C572.665 439.66 587.468 499.514 631.644 531.22L621.011 544.41C544.373 534.914 525.378 461.907 526.911 410.172Z" fill="#E87613"/>
<path fill-rule="evenodd" clip-rule="evenodd" d="M484.567 532.328C484.567 532.328 542.989 532.328 570.515 532.328C574.442 532.328 573.702 526.653 573.134 523.789C566.582 490.74 541.005 455.114 541.005 408.068L516.213 404.178C495.708 437.18 488.616 477.813 484.567 532.328Z" fill="#DDE3E9"/>
<path fill-rule="evenodd" clip-rule="evenodd" d="M474.903 555.934C471.04 565.218 467.252 573.319 463.683 579.541H445.25C443.267 515.375 467.543 466.001 487.86 436.23C483.349 435.907 479.277 434.018 476.704 429.371C467.642 413.009 470.915 404.001 480.598 401.04C485.923 399.411 490.931 400.523 496.926 401.853C501.832 402.942 507.398 404.177 514.34 404.178C514.342 404.178 514.344 404.178 514.347 404.178C515.019 404.178 515.631 404.223 516.187 404.309L524.413 404.779C524.413 404.779 557.814 518.058 542.837 555.934H474.903Z" fill="#FF9B21"/>
<path fill-rule="evenodd" clip-rule="evenodd" d="M474.903 555.934C479.971 543.753 485.168 529.536 490.169 514.853C492.031 531.023 495.132 547.263 500.294 555.934H474.903Z" fill="black" fill-opacity="0.1"/>
<defs>
<clipPath id="clip0_2_3672">
<rect width="926.295" height="376.2" fill="white" transform="translate(39.6201 284.188)"/>
</clipPath>
</defs>
</svg>
