<svg width="103" height="77" viewBox="0 0 103 77" fill="none" xmlns="http://www.w3.org/2000/svg">
<g clip-path="url(#clip0_11_286)">
<g clip-path="url(#clip1_11_286)">
<path d="M55.5234 27.6719H83.8484C84.8748 26.8275 85.9602 26.0243 87.1002 25.2656H55.5234C55.0966 25.2656 54.6873 25.3924 54.3854 25.618C54.0836 25.8436 53.9141 26.1497 53.9141 26.4688C53.9141 26.7878 54.0836 27.0939 54.3854 27.3195C54.6873 27.5451 55.0966 27.6719 55.5234 27.6719ZM66.7891 21.6562H91.5662C91.6753 21.1699 91.9167 20.7054 92.2755 20.2915C92.6342 19.8777 93.1027 19.5232 93.6519 19.25H66.7891C66.3622 19.25 65.9529 19.3768 65.6511 19.6024C65.3492 19.828 65.1797 20.134 65.1797 20.4531C65.1797 20.7722 65.3492 21.0782 65.6511 21.3039C65.9529 21.5295 66.3622 21.6562 66.7891 21.6562ZM102.792 21.1269C102.654 20.9442 102.455 20.7916 102.214 20.6844C101.972 20.5772 101.698 20.519 101.417 20.5157L96.3476 20.4531C95.9222 20.4514 95.5128 20.5743 95.207 20.7955C94.9013 21.0166 94.7235 21.3185 94.7117 21.6364C94.7068 21.8996 94.8178 22.1568 95.0276 22.3682C95.2375 22.5796 95.5345 22.7336 95.8729 22.8064C73.8236 32.7202 74.7925 49.7053 76.3101 56.7388C76.3712 57.0207 76.5645 57.2773 76.8553 57.4625C77.1462 57.6478 77.5157 57.7497 77.8978 57.75C77.984 57.7498 78.0701 57.7446 78.1553 57.7344C78.3639 57.7092 78.5639 57.6536 78.7438 57.5706C78.9237 57.4877 79.08 57.3791 79.2037 57.251C79.3274 57.1229 79.4162 56.9778 79.465 56.8241C79.5137 56.6704 79.5215 56.511 79.4878 56.355C78.0861 49.8587 77.1832 34.2337 97.1837 25.0328C97.1748 25.2992 97.2846 25.5602 97.496 25.7748C97.7074 25.9893 98.0083 26.1451 98.3512 26.2177C98.6942 26.2903 99.0597 26.2755 99.3901 26.1757C99.7206 26.0758 99.9972 25.8966 100.176 25.6663L102.781 22.324C102.923 22.1425 102.998 21.9366 103 21.7266C103.002 21.5165 102.93 21.3098 102.792 21.1269ZM44.2578 33.6875H78.1134C78.7046 32.879 79.3564 32.0769 80.0688 31.2812H44.2578C43.831 31.2812 43.4216 31.408 43.1198 31.6336C42.818 31.8593 42.6484 32.1653 42.6484 32.4844C42.6484 32.8035 42.818 33.1095 43.1198 33.3351C43.4216 33.5607 43.831 33.6875 44.2578 33.6875ZM33.7969 37.2969C33.37 37.2969 32.9607 37.4236 32.6589 37.6493C32.3571 37.8749 32.1875 38.1809 32.1875 38.5C32.1875 38.8191 32.3571 39.1251 32.6589 39.3507C32.9607 39.5764 33.37 39.7031 33.7969 39.7031H74.7112C75.0427 38.9051 75.4215 38.103 75.8474 37.2969H33.7969ZM20.9219 44.5156C20.9219 44.8347 21.0914 45.1407 21.3932 45.3664C21.6951 45.592 22.1044 45.7188 22.5312 45.7188H72.9506C73.0922 44.9323 73.2714 44.1302 73.4881 43.3125H22.5312C22.1044 43.3125 21.6951 43.4393 21.3932 43.6649C21.0914 43.8905 20.9219 44.1965 20.9219 44.5156ZM11.2656 51.7344H72.4669C72.4549 50.9692 72.4669 50.1679 72.5168 49.3281H11.2656C10.8388 49.3281 10.4294 49.4549 10.1276 49.6805C9.82581 49.9061 9.65625 50.2122 9.65625 50.5312C9.65625 50.8503 9.82581 51.1564 10.1276 51.382C10.4294 51.6076 10.8388 51.7344 11.2656 51.7344ZM72.7277 55.3438H1.60938C1.18254 55.3438 0.773191 55.4705 0.471375 55.6961C0.169559 55.9218 0 56.2278 0 56.5469C0 56.866 0.169559 57.172 0.471375 57.3976C0.773191 57.6232 1.18254 57.75 1.60938 57.75H73.1413C73.1388 57.741 73.134 57.7326 73.1324 57.7235C72.9643 56.9336 72.829 56.14 72.7269 55.3438H72.7277Z" fill="#03748B"/>
</g>
</g>
<defs>
<clipPath id="clip0_11_286">
<rect width="103" height="77" fill="white"/>
</clipPath>
<clipPath id="clip1_11_286">
<rect width="103" height="77" fill="white"/>
</clipPath>
</defs>
</svg>
