<svg width="28" height="33" viewBox="0 0 28 33" fill="none" xmlns="http://www.w3.org/2000/svg">
<path d="M8.16663 8.22222C8.47605 8.22222 8.77279 8.07784 8.99158 7.82084C9.21038 7.56385 9.33329 7.21529 9.33329 6.85185C9.33329 6.4884 9.21038 6.13984 8.99158 5.88285C8.77279 5.62585 8.47605 5.48148 8.16663 5.48148H5.83329C5.52387 5.48148 5.22713 5.62585 5.00833 5.88285C4.78954 6.13984 4.66663 6.4884 4.66663 6.85185L4.66663 26.037C4.66663 26.4005 4.78954 26.749 5.00833 27.006C5.22713 27.263 5.52387 27.4074 5.83329 27.4074H8.16663C8.47605 27.4074 8.77279 27.263 8.99158 27.006C9.21038 26.749 9.33329 26.4005 9.33329 26.037C9.33329 25.6736 9.21038 25.325 8.99158 25.068C8.77279 24.811 8.47605 24.6667 8.16663 24.6667H6.99996L6.99996 8.22222H8.16663Z" fill="#231F20"/>
<path d="M24.29 15.6496L21 10.1681C20.8216 9.8727 20.5508 9.67225 20.2469 9.61062C19.9431 9.54899 19.6308 9.63119 19.3783 9.83924C19.2522 9.9431 19.1447 10.0753 19.0623 10.2282C18.9798 10.381 18.924 10.5516 18.898 10.73C18.8719 10.9083 18.8762 11.091 18.9106 11.2674C18.945 11.4438 19.0088 11.6105 19.0983 11.7578L21.105 15.0741H21H11.6667C11.3572 15.0741 11.0605 15.2184 10.8417 15.4754C10.6229 15.7324 10.5 16.081 10.5 16.4444C10.5 16.8079 10.6229 17.1564 10.8417 17.4134C11.0605 17.6704 11.3572 17.8148 11.6667 17.8148H21L18.9 21.1037C18.8081 21.2477 18.7412 21.4115 18.7032 21.5858C18.6651 21.7601 18.6567 21.9416 18.6784 22.1197C18.7001 22.2979 18.7514 22.4693 18.8294 22.6241C18.9075 22.779 19.0108 22.9142 19.1333 23.0222C19.3353 23.2001 19.5809 23.2963 19.8333 23.2963C20.0145 23.2963 20.1931 23.2467 20.3551 23.1516C20.5171 23.0565 20.658 22.9183 20.7667 22.7481L24.2667 17.2667C24.4161 17.0349 24.4989 16.7533 24.5031 16.4626C24.5073 16.1719 24.4326 15.8872 24.29 15.6496V15.6496Z" fill="#231F20"/>
</svg>
