<svg width="44" height="44" viewBox="0 0 44 44" fill="none" xmlns="http://www.w3.org/2000/svg">
<circle cx="22" cy="22" r="22" transform="rotate(-90 22 22)" fill="#CCF7FF"/>
<path d="M33.6667 20.9034V23.1084C33.6667 23.6282 33.4602 24.1267 33.0926 24.4943C32.7251 24.8619 32.2265 25.0684 31.7067 25.0684H30.435C30.3601 25.0747 30.2885 25.1022 30.2286 25.1476C30.1687 25.193 30.123 25.2546 30.0967 25.325C30.051 25.3964 30.0267 25.4794 30.0267 25.5642C30.0267 25.649 30.051 25.732 30.0967 25.8034L31.03 26.6667C31.2124 26.8478 31.3571 27.0632 31.4559 27.3004C31.5547 27.5377 31.6055 27.7922 31.6055 28.0492C31.6055 28.3062 31.5547 28.5607 31.4559 28.7979C31.3571 29.0352 31.2124 29.2506 31.03 29.4317L29.4667 31.03C29.286 31.215 29.07 31.362 28.8316 31.4622C28.5931 31.5623 28.337 31.6138 28.0784 31.6134C27.5493 31.6126 27.042 31.403 26.6667 31.03L25.8034 30.1667C25.7391 30.125 25.6641 30.1028 25.5875 30.1028C25.5109 30.1028 25.436 30.125 25.3717 30.1667C25.1967 30.2367 25.0684 30.3534 25.0684 30.5167V31.7067C25.0653 32.2276 24.8562 32.7261 24.4868 33.0933C24.1174 33.4606 23.6176 33.6667 23.0967 33.6667L20.8917 33.6667C20.3719 33.6667 19.8733 33.4602 19.5058 33.0926C19.1382 32.725 18.9317 32.2265 18.9317 31.7067V30.435C18.9254 30.3601 18.8979 30.2885 18.8525 30.2286C18.807 30.1687 18.7455 30.123 18.675 30.0967C18.6037 30.051 18.5207 30.0266 18.4359 30.0266C18.3511 30.0266 18.2681 30.051 18.1967 30.0967L17.3334 31.03C17.1523 31.2124 16.9369 31.3571 16.6996 31.4559C16.4624 31.5547 16.2079 31.6055 15.9509 31.6055C15.6939 31.6055 15.4394 31.5547 15.2021 31.4559C14.9649 31.3571 14.7495 31.2124 14.5684 31.03L12.97 29.4667C12.7859 29.2877 12.6394 29.0737 12.5393 28.8373C12.4391 28.6009 12.3872 28.3468 12.3867 28.09C12.3855 27.8261 12.4365 27.5645 12.5366 27.3202C12.6367 27.076 12.784 26.8539 12.97 26.6667L13.8334 25.8034C13.8751 25.7391 13.8972 25.6641 13.8972 25.5875C13.8972 25.5109 13.8751 25.436 13.8334 25.3717C13.7634 25.1967 13.6467 25.0684 13.4834 25.0684H12.2934C11.7725 25.0653 11.274 24.8562 10.9067 24.4868C10.5395 24.1173 10.3334 23.6176 10.3334 23.0967V20.8334C10.3334 20.3135 10.5399 19.815 10.9074 19.4474C11.275 19.0799 11.7735 18.8734 12.2934 18.8734H13.565C13.64 18.867 13.7115 18.8396 13.7714 18.7941C13.8314 18.7487 13.8771 18.6871 13.9034 18.6167C13.9491 18.5453 13.9734 18.4623 13.9734 18.3775C13.9734 18.2927 13.9491 18.2097 13.9034 18.1384L12.97 17.3334C12.7877 17.1523 12.6429 16.9369 12.5442 16.6996C12.4454 16.4623 12.3945 16.2079 12.3945 15.9509C12.3945 15.6938 12.4454 15.4394 12.5442 15.2021C12.6429 14.9648 12.7877 14.7494 12.97 14.5684L14.5334 12.97C14.7145 12.7855 14.9305 12.6389 15.1689 12.5388C15.4073 12.4386 15.6632 12.3869 15.9217 12.3867C16.1846 12.3811 16.4457 12.43 16.6887 12.5304C16.9317 12.6308 17.1512 12.7805 17.3334 12.97L18.1967 13.8334C18.261 13.875 18.3359 13.8972 18.4125 13.8972C18.4891 13.8972 18.5641 13.875 18.6284 13.8334C18.8034 13.7634 18.9317 13.6467 18.9317 13.4834V12.2117C18.9557 11.7051 19.174 11.2273 19.5412 10.8775C19.9084 10.5277 20.3962 10.3328 20.9034 10.3334L23.1667 10.3334C23.6865 10.3334 24.1851 10.5399 24.5526 10.9074C24.9202 11.275 25.1267 11.7735 25.1267 12.2934V13.565C25.133 13.6399 25.1605 13.7115 25.206 13.7714C25.2514 13.8313 25.3129 13.8771 25.3834 13.9034C25.4476 13.945 25.5226 13.9672 25.5992 13.9672C25.6758 13.9672 25.7508 13.945 25.815 13.9034L26.7134 13.005C26.8945 12.8227 27.1099 12.6779 27.3471 12.5791C27.5844 12.4804 27.8389 12.4295 28.0959 12.4295C28.3529 12.4295 28.6074 12.4804 28.8446 12.5791C29.0819 12.6779 29.2973 12.8227 29.4784 13.005L31.03 14.5334C31.2142 14.7123 31.3606 14.9263 31.4608 15.1627C31.561 15.3992 31.6129 15.6532 31.6134 15.91C31.6065 16.431 31.3973 16.9289 31.03 17.2984L30.1667 18.1967C30.125 18.261 30.1028 18.3359 30.1028 18.4125C30.1028 18.4891 30.125 18.5641 30.1667 18.6284C30.2367 18.8034 30.3534 18.9317 30.5167 18.9317H31.7884C32.2949 18.9557 32.7728 19.174 33.1226 19.5412C33.4724 19.9084 33.6673 20.3962 33.6667 20.9034V20.9034ZM31.3334 22.735L31.3334 21.265H30.435C29.897 21.2601 29.3726 21.0955 28.9282 20.7923C28.4837 20.4891 28.1392 20.0608 27.9384 19.5617C27.7193 19.0605 27.6545 18.5055 27.7521 17.9673C27.8498 17.4291 28.1055 16.9323 28.4867 16.54L29.1167 15.91L28.09 14.8834L27.4484 15.5134C27.0621 15.8921 26.5719 16.1476 26.0402 16.2473C25.5084 16.347 24.959 16.2865 24.4617 16.0734C23.9648 15.8707 23.5389 15.5254 23.2379 15.0811C22.9369 14.6368 22.7741 14.1134 22.77 13.5767V12.6667L21.265 12.6667V13.565C21.2601 14.103 21.0956 14.6275 20.7923 15.0719C20.4891 15.5163 20.0608 15.8608 19.5617 16.0617C19.0605 16.2808 18.5055 16.3456 17.9673 16.2479C17.4292 16.1503 16.9323 15.8945 16.54 15.5134L15.91 14.8834L14.8834 15.91L15.5134 16.5517C15.8717 16.944 16.1105 17.4306 16.2017 17.954C16.2928 18.4775 16.2324 19.0161 16.0277 19.5065C15.823 19.9968 15.4824 20.4184 15.0461 20.7217C14.6098 21.025 14.096 21.1973 13.565 21.2184H12.6667V22.735H13.565C14.103 22.74 14.6275 22.9045 15.0719 23.2077C15.5164 23.5109 15.8608 23.9392 16.0617 24.4384C16.2808 24.9395 16.3456 25.4946 16.248 26.0327C16.1503 26.5709 15.8946 27.0678 15.5134 27.46L14.8834 28.09L15.91 29.1167L16.5517 28.4867C16.944 28.1283 17.4306 27.8895 17.9541 27.7984C18.4775 27.7073 19.0162 27.7676 19.5065 27.9724C19.9968 28.1771 20.4185 28.5176 20.7217 28.9539C21.025 29.3902 21.1973 29.9041 21.2184 30.435V31.3334H22.6884V30.435C22.6933 29.897 22.8579 29.3726 23.1611 28.9281C23.4643 28.4837 23.8926 28.1392 24.3917 27.9384C24.8929 27.7193 25.4479 27.6544 25.9861 27.7521C26.5243 27.8498 27.0211 28.1055 27.4134 28.4867L28.0434 29.1167L29.07 28.09L28.44 27.4484C28.0817 27.056 27.8429 26.5695 27.7518 26.046C27.6606 25.5225 27.721 24.9839 27.9257 24.4936C28.1304 24.0032 28.471 23.5816 28.9073 23.2783C29.3436 22.975 29.8574 22.8027 30.3884 22.7817L31.3334 22.735Z" fill="#231F20"/>
<path d="M26.0834 22.0001C26.0834 22.8077 25.8439 23.5971 25.3953 24.2686C24.9466 24.9401 24.3088 25.4635 23.5627 25.7726C22.8166 26.0816 21.9956 26.1625 21.2035 26.0049C20.4114 25.8474 19.6838 25.4585 19.1127 24.8874C18.5417 24.3164 18.1528 23.5888 17.9952 22.7967C17.8377 22.0046 17.9185 21.1836 18.2276 20.4374C18.5366 19.6913 19.06 19.0536 19.7315 18.6049C20.403 18.1562 21.1925 17.9167 22.0001 17.9167C23.0831 17.9167 24.1217 18.3469 24.8874 19.1127C25.6532 19.8785 26.0834 20.9171 26.0834 22.0001V22.0001ZM20.2501 22.0001C20.2501 22.3462 20.3527 22.6845 20.545 22.9723C20.7373 23.2601 21.0106 23.4844 21.3304 23.6169C21.6502 23.7493 22.002 23.784 22.3415 23.7164C22.681 23.6489 22.9928 23.4822 23.2375 23.2375C23.4823 22.9928 23.6489 22.6809 23.7165 22.3415C23.784 22.002 23.7493 21.6501 23.6169 21.3304C23.4844 21.0106 23.2601 20.7373 22.9723 20.545C22.6845 20.3527 22.3462 20.2501 22.0001 20.2501C21.536 20.2501 21.0908 20.4344 20.7626 20.7626C20.4345 21.0908 20.2501 21.5359 20.2501 22.0001Z" fill="#231F20"/>
</svg>
