<svg width="28" height="32" viewBox="0 0 28 32" fill="none" xmlns="http://www.w3.org/2000/svg">
<path d="M21 19.5588C20.0835 19.5597 19.2038 19.9623 18.55 20.6802L9.33333 16.0904C9.33333 15.9339 9.33333 15.8035 9.33333 15.6471C9.33333 15.4906 9.33333 15.3602 9.33333 15.2168L18.55 10.6139C19.1273 11.2464 19.8826 11.6359 20.6878 11.7165C21.4929 11.7971 22.2982 11.5638 22.9669 11.056C23.6355 10.5483 24.1263 9.7976 24.3559 8.93134C24.5855 8.06507 24.5397 7.1367 24.2263 6.30389C23.9129 5.47108 23.3513 4.78518 22.6367 4.36268C21.9222 3.94019 21.0989 3.80715 20.3065 3.98616C19.5142 4.16517 18.8017 4.64519 18.2901 5.3447C17.7785 6.04421 17.4993 6.92007 17.5 7.82354V8.26687L8.28333 12.8567C7.79142 12.3165 7.1677 11.9508 6.49047 11.8055C5.81325 11.6601 5.1127 11.7416 4.47677 12.0397C3.84083 12.3378 3.29786 12.8392 2.91601 13.481C2.53416 14.1228 2.33044 14.8763 2.33044 15.6471C2.33044 16.4178 2.53416 17.1713 2.91601 17.8131C3.29786 18.4549 3.84083 18.9563 4.47677 19.2544C5.1127 19.5525 5.81325 19.634 6.49047 19.4886C7.1677 19.3433 7.79142 18.9776 8.28333 18.4375L17.5 23.0403V23.4706C17.5 24.2443 17.7053 25.0006 18.0899 25.6439C18.4744 26.2871 19.0211 26.7885 19.6606 27.0846C20.3001 27.3807 21.0039 27.4581 21.6828 27.3072C22.3617 27.1563 22.9854 26.7837 23.4749 26.2366C23.9644 25.6896 24.2977 24.9926 24.4327 24.2337C24.5678 23.4749 24.4985 22.6884 24.2336 21.9736C23.9687 21.2588 23.5201 20.6479 22.9445 20.2181C22.3689 19.7883 21.6922 19.5588 21 19.5588Z" fill="#231F20"/>
</svg>
